<svg viewBox="0 0 512 512" xmlns="http://www.w3.org/2000/svg">
  <defs>
    <linearGradient id="grad" x1="0%" y1="0%" x2="100%" y2="100%">
      <stop offset="0%" style="stop-color:#2563eb;stop-opacity:1" />
      <stop offset="100%" style="stop-color:#1d4ed8;stop-opacity:1" />
    </linearGradient>
  </defs>
  <!-- Background circle -->
  <rect width="512" height="512" fill="#ffffff"/>
  <!-- Main gradient background -->
  <rect width="512" height="512" rx="110" fill="url(#grad)"/>
  <!-- Chat bubbles -->
  <path d="M 140 180 Q 140 150 170 150 L 300 150 Q 330 150 330 180 L 330 260 Q 330 290 300 290 L 200 290 L 160 330 L 180 290 L 170 290 Q 140 290 140 260 Z" fill="#ffffff" opacity="0.95"/>
  <path d="M 240 320 Q 240 300 260 300 L 380 300 Q 400 300 400 320 L 400 370 Q 400 390 380 390 L 310 390 L 280 420 L 300 390 L 260 390 Q 240 390 240 370 Z" fill="#ffffff" opacity="0.85"/>
</svg>
